D:\school\WTK\thesis\model\3dpredictsim\Results\Batchsim_tmt_linear_v2\Pog_s1_tmt_bCst_d02_k2000_ig24_pas_GRF.mot
nRows=25
nColumns=19

name D:\school\WTK\thesis\model\3dpredictsim\Results\Batchsim_tmt_linear_v2\Pog_s1_tmt_bCst_d02_k2000_ig24_pas_GRF.mot
datacolumns 19
datarows 25
range 0.5334449516 0.7894985284
endheader
time 	ground_force_vx	ground_force_vy	ground_force_vz	ground_force_px	ground_force_py	ground_force_pz	1_ground_force_vx	1_ground_force_vy	1_ground_force_vz	1_ground_force_px	1_ground_force_py	1_ground_force_pz	ground_torque_x	ground_torque_y	ground_torque_z	1_ground_torque_x	1_ground_torque_y	1_ground_torque_z
        0.5334449516	      126.6673068691	      537.7853161988	       -3.9709861013	        0.3222669886	        0.0000000000	        0.0497520417	      -61.5812215203	       42.4158207241	       -9.7840942059	        0.8263561084	        0.0000000000	       -0.0465630005	        0.0000000000	        0.0000000000	        0.0000000000	        0.0000000000	        0.0000000000	        0.0000000000	
        0.5441138507	      104.0934621141	      454.8048468061	        0.7700904923	        0.3314220216	        0.0000000000	        0.0487511208	     -111.9888813917	       95.3416725927	      -24.5313538640	        0.8370629772	        0.0000000000	       -0.0448075700	        0.0000000000	        0.0000000000	        0.0000000000	        0.0000000000	        0.0000000000	        0.0000000000	
        0.5547827497	       71.3768358966	      357.3238166357	        6.1449566480	        0.3460570142	        0.0000000000	        0.0468596455	     -113.5759414573	      203.3106156346	      -49.2831944830	        0.8440396162	        0.0000000000	       -0.0439364266	        0.0000000000	        0.0000000000	        0.0000000000	        0.0000000000	        0.0000000000	        0.0000000000	
        0.5654516487	       36.8412307858	      258.6633388831	        5.5439317639	        0.3689111282	        0.0000000000	        0.0435465978	      -58.0957415907	      367.1602291101	       -7.9113050868	        0.8490449370	        0.0000000000	       -0.0431642109	        0.0000000000	        0.0000000000	        0.0000000000	        0.0000000000	        0.0000000000	        0.0000000000	
        0.5761205478	       10.8301322990	      178.3562985159	        7.2641298852	        0.3989568416	        0.0000000000	        0.0379247930	      -67.0000488222	      565.8764264816	        5.4894559180	        0.8572303711	        0.0000000000	       -0.0453311547	        0.0000000000	        0.0000000000	        0.0000000000	        0.0000000000	        0.0000000000	        0.0000000000	
        0.5867894468	       -1.5529656161	      143.5420629661	       12.2603250923	        0.4103108958	        0.0000000000	        0.0349960558	     -104.6755443235	      765.4100486392	       12.9385290888	        0.8658385713	        0.0000000000	       -0.0480315945	        0.0000000000	        0.0000000000	        0.0000000000	        0.0000000000	        0.0000000000	        0.0000000000	
        0.5974583458	       -1.5279260165	      113.7239091019	       15.0720750229	        0.4108096104	        0.0000000000	        0.0352848206	     -121.9772055865	      872.2905772484	       15.9326203279	        0.8716936912	        0.0000000000	       -0.0497252606	        0.0000000000	        0.0000000000	        0.0000000000	        0.0000000000	        0.0000000000	        0.0000000000	
        0.6081272449	       -3.1371611907	       80.1328398964	       15.8499150131	        0.4113958963	        0.0000000000	        0.0354844897	     -119.3471034363	      885.2270440408	       16.6062498612	        0.8759738601	        0.0000000000	       -0.0508264950	        0.0000000000	        0.0000000000	        0.0000000000	        0.0000000000	        0.0000000000	        0.0000000000	
        0.6187961439	       -6.8101017670	       44.1978012298	       12.5231681636	        0.4116641750	        0.0000000000	        0.0355227422	     -109.8093605061	      852.5600560230	       16.1181727493	        0.8796440894	        0.0000000000	       -0.0516348068	        0.0000000000	        0.0000000000	        0.0000000000	        0.0000000000	        0.0000000000	        0.0000000000	
        0.6294650429	       -6.3809789116	        8.7639297470	        2.7683624000	        0.0000000000	        0.0000000000	        0.0000000000	      -99.2216979925	      817.6520421217	       14.3734276984	        0.8834378045	        0.0000000000	       -0.0522917256	        0.0000000000	        0.0000000000	        0.0000000000	        0.0000000000	        0.0000000000	        0.0000000000	
        0.6401339420	        0.0042817351	       -0.0038604603	       -0.0002239200	        0.0000000000	        0.0000000000	        0.0000000000	      -91.2660451384	      801.2287919489	       15.8343820308	        0.8884260388	        0.0000000000	       -0.0530019214	        0.0000000000	        0.0000000000	        0.0000000000	        0.0000000000	        0.0000000000	        0.0000000000	
        0.6508028410	        0.0001941781	       -0.0001483731	       -0.0000009168	        0.0000000000	        0.0000000000	        0.0000000000	      -84.7758112731	      787.0937664178	       16.1941864002	        0.8946846075	        0.0000000000	       -0.0532752785	        0.0000000000	        0.0000000000	        0.0000000000	        0.0000000000	        0.0000000000	        0.0000000000	
        0.6614717400	        0.0002038881	       -0.0001368059	        0.0000030016	        0.0000000000	        0.0000000000	        0.0000000000	      -76.7009004666	      756.9324165914	       16.3265175978	        0.9007888637	        0.0000000000	       -0.0534146778	        0.0000000000	        0.0000000000	        0.0000000000	        0.0000000000	        0.0000000000	        0.0000000000	
        0.6721406391	        0.0035315340	       -0.0021437252	        0.0000827132	        0.0000000000	        0.0000000000	        0.0000000000	      -68.7637724266	      721.4815985889	       16.1405413337	        0.9068193811	        0.0000000000	       -0.0534305829	        0.0000000000	        0.0000000000	        0.0000000000	        0.0000000000	        0.0000000000	        0.0000000000	
        0.6828095381	       -0.0315243709	        0.0176424144	       -0.0009022365	        0.0000000000	        0.0000000000	        0.0000000000	      -61.0560693667	      689.3731090337	       16.1938637201	        0.9127142644	        0.0000000000	       -0.0534212148	        0.0000000000	        0.0000000000	        0.0000000000	        0.0000000000	        0.0000000000	        0.0000000000	
        0.6934784371	       -0.0441434971	        0.0230969281	       -0.0014253819	        0.0000000000	        0.0000000000	        0.0000000000	      -53.6314694041	      663.0083165626	       16.6309092911	        0.9182909932	        0.0000000000	       -0.0534171856	        0.0000000000	        0.0000000000	        0.0000000000	        0.0000000000	        0.0000000000	        0.0000000000	
        0.7041473362	       -0.0302600816	        0.0149569282	       -0.0010605574	        0.0000000000	        0.0000000000	        0.0000000000	      -47.0820639013	      642.4260937650	       17.0582800640	        0.9235483454	        0.0000000000	       -0.0534037536	        0.0000000000	        0.0000000000	        0.0000000000	        0.0000000000	        0.0000000000	        0.0000000000	
        0.7148162352	       -0.0237807116	        0.0111933891	       -0.0008798892	        0.0000000000	        0.0000000000	        0.0000000000	      -41.1101810270	      626.6970247343	       17.3724810925	        0.9284905148	        0.0000000000	       -0.0533703100	        0.0000000000	        0.0000000000	        0.0000000000	        0.0000000000	        0.0000000000	        0.0000000000	
        0.7254851342	       -0.0239243271	        0.0107871374	       -0.0009234056	        0.0000000000	        0.0000000000	        0.0000000000	      -36.2642544518	      615.4812834254	       17.9576202053	        0.9331523035	        0.0000000000	       -0.0533036976	        0.0000000000	        0.0000000000	        0.0000000000	        0.0000000000	        0.0000000000	        0.0000000000	
        0.7361540333	       -0.0306053710	        0.0132886396	       -0.0012227262	        0.0000000000	        0.0000000000	        0.0000000000	      -32.5173565895	      607.7251087480	       18.6951003983	        0.9374953379	        0.0000000000	       -0.0532028641	        0.0000000000	        0.0000000000	        0.0000000000	        0.0000000000	        0.0000000000	        0.0000000000	
        0.7468229323	       -0.0474285408	        0.0199261928	       -0.0019530893	        0.0000000000	        0.0000000000	        0.0000000000	      -29.3049717395	      601.5091316557	       19.4366890647	        0.9414875443	        0.0000000000	       -0.0530779238	        0.0000000000	        0.0000000000	        0.0000000000	        0.0000000000	        0.0000000000	        0.0000000000	
        0.7574918313	       -0.0835757162	        0.0341190888	       -0.0035298343	        0.0000000000	        0.0000000000	        0.0000000000	      -26.1561961288	      595.5779247295	       20.0161249089	        0.9451414820	        0.0000000000	       -0.0529432726	        0.0000000000	        0.0000000000	        0.0000000000	        0.0000000000	        0.0000000000	        0.0000000000	
        0.7681607304	       -0.1565018206	        0.0623203396	       -0.0067506052	        0.0000000000	        0.0000000000	        0.0000000000	      -23.0100088581	      589.3681431251	       20.4502777955	        0.9484631773	        0.0000000000	       -0.0528078747	        0.0000000000	        0.0000000000	        0.0000000000	        0.0000000000	        0.0000000000	        0.0000000000	
        0.7788296294	       -0.2923198613	        0.1139589935	       -0.0128308382	        0.0000000000	        0.0000000000	        0.0000000000	      -19.8039367999	      582.3441901187	       20.7471280218	        0.9514708509	        0.0000000000	       -0.0526771620	        0.0000000000	        0.0000000000	        0.0000000000	        0.0000000000	        0.0000000000	        0.0000000000	
        0.7894985284	       -0.5222440484	        0.1999053362	       -0.0232802637	        0.0000000000	        0.0000000000	        0.0000000000	      -16.4473543638	      574.4482161519	       20.8039440247	        0.9541926816	        0.0000000000	       -0.0525531827	        0.0000000000	        0.0000000000	        0.0000000000	        0.0000000000	        0.0000000000	        0.0000000000	
